<svg width="1440" height="861" viewBox="0 0 1440 861" fill="none" xmlns="http://www.w3.org/2000/svg">
    <mask id="path-1-inside-1_864_16864" fill="white">
        <path fill-rule="evenodd" clip-rule="evenodd" d="M228.566 0L689.053 352.394V0.0193954L1251.58 430.499V0.0185547H689.053V0H1252.83L1713.33 352.394V0H1713.33V783.006L1252.7 430.5V860.981H1713.33V861H1249.23L788.732 508.603V861H224.957L-235.33 508.759V78.1632L225.084 430.499V0.0185547H-235.33V0H228.566ZM788.732 860.981L226.203 430.5V860.981H788.732Z"/>
    </mask>
    <path d="M689.053 352.394L688.445 353.188L690.053 354.419V352.394H689.053ZM228.566 0L229.173 -0.794144L228.904 -1H228.566V0ZM689.053 0.0193954L689.661 -0.77475L688.053 -2.00508V0.0193954H689.053ZM1251.58 430.499L1250.97 431.293L1252.58 432.524V430.499H1251.58ZM1251.58 0.0185547H1252.58V-0.981445H1251.58V0.0185547ZM689.053 0.0185547H688.053V1.01855H689.053V0.0185547ZM689.053 0V-1H688.053V0H689.053ZM1252.83 0L1253.44 -0.794147L1253.17 -1H1252.83V0ZM1713.33 352.394L1712.72 353.188L1714.33 354.419V352.394H1713.33ZM1713.33 0V-1H1712.33V0H1713.33ZM1713.33 0H1714.33V-1H1713.33V0ZM1713.33 783.006L1712.72 783.8L1714.33 785.03V783.006H1713.33ZM1252.7 430.5L1253.3 429.706L1251.7 428.476V430.5H1252.7ZM1252.7 860.981H1251.7V861.981H1252.7V860.981ZM1713.33 860.981H1714.33V859.981H1713.33V860.981ZM1713.33 861V862H1714.33V861H1713.33ZM1249.23 861L1248.62 861.794L1248.89 862H1249.23V861ZM788.732 508.603L789.34 507.809L787.732 506.579V508.603H788.732ZM788.732 861V862H789.732V861H788.732ZM224.957 861L224.349 861.794L224.618 862H224.957V861ZM-235.33 508.759H-236.33V509.253L-235.938 509.553L-235.33 508.759ZM-235.33 78.1632L-234.722 77.369L-236.33 76.1387V78.1632H-235.33ZM225.084 430.499L224.476 431.293L226.084 432.524V430.499H225.084ZM225.084 0.0185547H226.084V-0.981445H225.084V0.0185547ZM-235.33 0.0185547H-236.33V1.01855H-235.33V0.0185547ZM-235.33 0V-1H-236.33V0H-235.33ZM226.203 430.5L226.81 429.706L225.203 428.476V430.5H226.203ZM788.732 860.981V861.981H791.684L789.339 860.187L788.732 860.981ZM226.203 860.981H225.203V861.981H226.203V860.981ZM689.661 351.6L229.173 -0.794144L227.958 0.794144L688.445 353.188L689.661 351.6ZM688.053 0.0193954V352.394H690.053V0.0193954H688.053ZM1252.19 429.705L689.661 -0.77475L688.445 0.813541L1250.97 431.293L1252.19 429.705ZM1250.58 0.0185547V430.499H1252.58V0.0185547H1250.58ZM689.053 1.01855H1251.58V-0.981445H689.053V1.01855ZM688.053 0V0.0185547H690.053V0H688.053ZM1252.83 -1H689.053V1H1252.83V-1ZM1713.93 351.6L1253.44 -0.794147L1252.23 0.794147L1712.72 353.188L1713.93 351.6ZM1712.33 0V352.394H1714.33V0H1712.33ZM1713.33 -1H1713.33V1H1713.33V-1ZM1714.33 783.006V0H1712.33V783.006H1714.33ZM1252.09 431.294L1712.72 783.8L1713.94 782.212L1253.3 429.706L1252.09 431.294ZM1253.7 860.981V430.5H1251.7V860.981H1253.7ZM1713.33 859.981H1252.7V861.981H1713.33V859.981ZM1714.33 861V860.981H1712.33V861H1714.33ZM1249.23 862H1713.33V860H1249.23V862ZM788.124 509.398L1248.62 861.794L1249.83 860.206L789.34 507.809L788.124 509.398ZM789.732 861V508.603H787.732V861H789.732ZM224.957 862H788.732V860H224.957V862ZM-235.938 509.553L224.349 861.794L225.565 860.206L-234.722 507.965L-235.938 509.553ZM-236.33 78.1632V508.759H-234.33V78.1632H-236.33ZM-235.938 78.9573L224.476 431.293L225.691 429.705L-234.722 77.369L-235.938 78.9573ZM226.084 430.499V0.0185547H224.084V430.499H226.084ZM225.084 -0.981445H-235.33V1.01855H225.084V-0.981445ZM-236.33 0V0.0185547H-234.33V0H-236.33ZM228.566 -1H-235.33V1H228.566V-1ZM225.595 431.294L788.124 861.775L789.339 860.187L226.81 429.706L225.595 431.294ZM227.203 860.981V430.5H225.203V860.981H227.203ZM788.732 859.981H226.203V861.981H788.732V859.981Z" fill="#F1F1F1" mask="url(#path-1-inside-1_864_16864)"/>
</svg>
