<svg width="69" height="40" viewBox="0 0 69 40" fill="none" xmlns="http://www.w3.org/2000/svg">
    <g clip-path="url(#clip0_911_20880)">
        <path d="M44.8477 16.083C44.7508 16.083 44.6724 16.0063 44.6724 15.9116V12.669C44.6724 12.5746 44.7508 12.4977 44.8477 12.4977H46.2107C46.7319 12.4977 46.9588 12.7692 46.9588 13.2216V15.3676C46.9588 15.82 46.7403 16.083 46.2276 16.083H44.8477ZM47.9675 15.3349V13.2463C47.9675 12.1032 47.3117 11.5439 46.4209 11.5439H43.839C43.7422 11.5439 43.6638 11.6206 43.6638 11.7153V16.8656C43.6638 16.9603 43.7422 17.037 43.839 17.037H46.3453C47.2783 17.037 47.9675 16.4532 47.9675 15.3349Z" fill="white"/>
        <path d="M68.5405 11.5439H67.8991C67.8025 11.5439 67.7238 11.6206 67.7238 11.7153V15.3514C67.7238 15.7705 67.4718 16.075 67.0512 16.075H66.2446C65.8327 16.075 65.5889 15.8117 65.5889 15.3676V11.7153C65.5889 11.6206 65.5107 11.5439 65.4136 11.5439H64.7634C64.6668 11.5439 64.5886 11.6206 64.5886 11.7153V15.3514C64.5886 16.5024 65.3195 17.037 66.2027 17.037H67.0936C67.9844 17.037 68.7158 16.4694 68.7158 15.3266V11.7153C68.7158 11.6206 68.6371 11.5439 68.5405 11.5439Z" fill="white"/>
        <path d="M55.9385 19.46H55.297C55.2004 19.46 55.1217 19.5366 55.1217 19.6313V23.3166C55.1217 23.736 54.8698 24.0402 54.4491 24.0402H53.6426C53.2306 24.0402 52.9868 23.7772 52.9868 23.3331V19.6313C52.9868 19.5366 52.9086 19.46 52.8115 19.46H52.1614C52.0648 19.46 51.9866 19.5366 51.9866 19.6313V23.3166C51.9866 24.4679 52.7175 25.0022 53.6007 25.0022H54.4915C55.3824 25.0022 56.1138 24.4349 56.1138 23.2921V19.6313C56.1138 19.5366 56.0351 19.46 55.9385 19.46Z" fill="white"/>
        <path d="M39.1772 17.037H39.8357C39.9322 17.037 40.0106 16.9603 40.0106 16.8656V11.7153C40.0106 11.6206 39.9322 11.5439 39.8357 11.5439H39.1772C39.0804 11.5439 39.002 11.6206 39.002 11.7153V16.8656C39.002 16.9603 39.0804 17.037 39.1772 17.037Z" fill="white"/>
        <path d="M60.8892 15.3349V11.7153C60.8892 11.6206 60.811 11.5439 60.7139 11.5439H58.1389C58.0428 11.5439 57.9641 11.6206 57.9641 11.7153V12.3191C57.9641 12.4135 58.0423 12.4899 58.1384 12.4904L59.7142 12.4972C59.8108 12.4977 59.889 12.5741 59.889 12.6685V15.2374C59.889 15.7046 59.502 16.083 59.0247 16.083H58.1389C58.0428 16.083 57.9641 16.1597 57.9641 16.2544V16.8586C57.9641 16.9528 58.0418 17.0292 58.1379 17.03L59.2669 17.037C60.511 17.037 60.8892 16.075 60.8892 15.3349Z" fill="white"/>
        <path d="M54.9004 16.8579V16.2544C54.9004 16.1597 54.8217 16.083 54.7251 16.083H52.3351C52.2385 16.083 52.1603 16.0063 52.1603 15.9116V14.7826C52.1603 14.6879 52.2385 14.6112 52.3351 14.6112H54.1644C54.2615 14.6112 54.3397 14.5345 54.3397 14.4398V13.8368C54.3397 13.7422 54.2615 13.6655 54.1644 13.6655H52.3351C52.2385 13.6655 52.1603 13.5888 52.1603 13.4941V12.6685C52.1603 12.5744 52.238 12.4974 52.3346 12.4972L54.7256 12.4902C54.8222 12.4899 54.9004 12.4132 54.9004 12.3188V11.7153C54.9004 11.6206 54.8217 11.5439 54.7251 11.5439H51.3262C51.2296 11.5439 51.1514 11.6206 51.1514 11.7153V16.8651C51.1514 16.96 51.2296 17.0367 51.3267 17.0365L54.7256 17.0292C54.8222 17.029 54.9004 16.9523 54.9004 16.8579Z" fill="white"/>
        <path d="M61.226 21.8858L60.2089 21.4664C59.9063 21.343 59.7468 21.1951 59.7468 20.9236C59.7468 20.5949 59.9656 20.4223 60.2426 20.4223H62.1353C62.2319 20.4223 62.3106 20.3453 62.3106 20.2509V19.6397C62.3106 19.545 62.2319 19.4683 62.1353 19.4683H60.2426C59.2843 19.4683 58.7629 20.1098 58.7629 20.9319C58.7629 21.8611 59.293 22.1324 59.9569 22.4122L61.0241 22.856C61.3854 23.0042 61.6042 23.2098 61.6042 23.4893C61.6042 23.8592 61.3691 24.0483 61.0997 24.0483H59.0706C58.974 24.0483 58.8958 24.125 58.8958 24.2197V24.8309C58.8958 24.9256 58.974 25.0023 59.0706 25.0023H61.1166C62.0668 25.0023 62.5963 24.2789 62.5963 23.4481C62.5963 22.5191 61.8817 22.1571 61.226 21.8858Z" fill="white"/>
        <path d="M67.3456 21.8858L66.3285 21.4664C66.0259 21.343 65.8665 21.1951 65.8665 20.9236C65.8665 20.5949 66.0847 20.4223 66.3617 20.4223H68.2549C68.3515 20.4223 68.4302 20.3453 68.4302 20.2509V19.6397C68.4302 19.545 68.3515 19.4683 68.2549 19.4683H66.3617C65.4039 19.4683 64.8826 20.1098 64.8826 20.9319C64.8826 21.8611 65.4121 22.1324 66.0765 22.4122L67.1437 22.856C67.5051 23.0042 67.7238 23.2098 67.7238 23.4893C67.7238 23.8592 67.4887 24.0483 67.2194 24.0483H65.1903C65.0937 24.0483 65.0155 24.125 65.0155 24.2197V24.8309C65.0155 24.9256 65.0937 25.0023 65.1903 25.0023H67.2362C68.1864 25.0023 68.7159 24.2789 68.7159 23.4481C68.7159 22.5191 68.0014 22.1571 67.3456 21.8858Z" fill="white"/>
        <path d="M43.0222 20.2025C43.0937 20.1388 43.0988 20.0306 43.0337 19.9605L42.6272 19.5243C42.5618 19.4541 42.4507 19.4491 42.3792 19.5133L40.0274 21.6228H40.0025V19.6397C40.0025 19.545 39.924 19.4684 39.8272 19.4684H39.1772C39.0804 19.4684 39.002 19.545 39.002 19.6397V24.831C39.002 24.9257 39.0804 25.0024 39.1772 25.0024H39.8272C39.924 25.0024 40.0025 24.9257 40.0025 24.831V22.9328C40.0025 22.8838 40.0236 22.8374 40.0609 22.8049L40.2529 22.637C40.3303 22.5696 40.4503 22.5818 40.5114 22.664L42.1972 24.9319C42.2544 25.0088 42.3649 25.0253 42.4431 24.9689L42.9584 24.5954C43.0357 24.5395 43.0536 24.4343 42.9969 24.3581C42.6708 23.9205 41.7646 22.7055 41.2307 22.001C41.1773 21.9303 41.1878 21.8324 41.2542 21.7732L43.0222 20.2025Z" fill="white"/>
        <path d="M47.5279 22.864H46.7713C46.6516 22.864 46.5671 22.7491 46.6053 22.638L47.1329 21.1042H47.1663L47.6939 22.638C47.7319 22.7491 47.6477 22.864 47.5279 22.864ZM47.7884 19.9119C47.7043 19.6734 47.5782 19.5088 47.2756 19.5088H47.0236C46.7208 19.5088 46.5949 19.6734 46.5108 19.9119L44.8268 24.5514C44.7944 24.6406 44.8419 24.7385 44.933 24.7702L45.5709 24.9921C45.6616 25.0235 45.7614 24.9776 45.7941 24.8889L46.1661 23.8895C46.1914 23.8218 46.2573 23.7768 46.3308 23.7768H47.9684C48.0419 23.7768 48.1078 23.8218 48.1329 23.8895L48.5049 24.8889C48.5378 24.9776 48.6377 25.0235 48.728 24.9921L49.3659 24.7702C49.4571 24.7385 49.5048 24.6406 49.4724 24.5514L47.7884 19.9119Z" fill="white"/>
        <path d="M27.1016 5.64516L27.0122 5.57471L26.8796 5.70436C25.9035 6.65961 25.8846 8.20486 26.837 9.22251C29.4395 12.0028 30.7119 15.6086 30.4195 19.3753C30.0278 24.4199 26.6749 28.8958 21.8572 30.829V24.8293L24.2636 27.1832V24.4641C24.2636 23.6705 23.9475 22.9244 23.374 22.3631L20.4298 19.4829L17.4854 22.3631C16.9116 22.9244 16.5958 23.6705 16.5958 24.4641V27.1832L19.0021 24.8293V31.6323C18.5387 31.7108 18.0842 31.7655 17.6488 31.7954C16.5376 31.8716 15.4163 31.8162 14.3137 31.6306V17.4813L16.7201 19.8354V17.1164C16.7201 16.3228 16.404 15.5766 15.8302 15.0153L12.8861 12.1349L9.94162 15.0153C9.36816 15.5766 9.05203 16.323 9.05203 17.1164V19.8354L11.4584 17.4813V30.8302C6.30496 28.7706 2.85548 23.77 2.85548 18.3274C2.85548 14.9556 4.13988 11.7247 6.47225 9.22976C7.40477 8.23206 7.37129 6.70356 6.3964 5.74981L6.25493 5.61146L6.16558 5.68266C2.01309 8.98646 -0.227592 13.8747 0.0183081 19.094C0.333407 25.7711 4.9261 31.667 11.4584 33.7943V37.2393C11.4584 38.5884 12.4857 39.7495 13.8477 39.9401C13.955 39.9551 14.0625 39.969 14.1699 39.9823L14.3137 40V34.4588C15.0736 34.5654 15.8476 34.6206 16.6162 34.6224C17.4157 34.6219 18.2159 34.5704 19.0021 34.4615V39.985L19.1467 39.9661C19.2608 39.9511 19.3747 39.9351 19.4881 39.9183C20.8608 39.715 21.8572 38.5807 21.8572 37.2208V33.8061C28.7146 31.5973 33.3152 25.3886 33.3152 18.3274C33.3152 13.3859 31.0505 8.76341 27.1016 5.64516Z" fill="white"/>
        <path d="M15.1869 8.7189C15.1869 9.3624 15.443 9.96715 15.908 10.4223L18.0422 12.5098V5.3684L20.4259 7.70025V4.98145C20.4259 4.18759 20.11 3.4417 19.5363 2.88041L16.5921 0L13.6477 2.88041C13.0742 3.4417 12.7581 4.18785 12.7581 4.98145V7.70025L15.1869 5.3244V8.7189Z" fill="white"/>
    </g>
    <defs>
        <clipPath id="clip0_911_20880">
            <rect width="69" height="40" fill="white"/>
        </clipPath>
    </defs>
</svg>
