<svg xmlns="http://www.w3.org/2000/svg" width="25" height="24" viewBox="0 0 25 24" fill="none">
    <path d="M14 7C14.2761 7 14.5 6.77614 14.5 6.5C14.5 6.22386 14.2761 6 14 6C13.7239 6 13.5 6.22386 13.5 6.5C13.5 6.77614 13.7239 7 14 7Z" fill="#FF720B" stroke="#FF720B" stroke-width="1.6" stroke-linecap="round" stroke-linejoin="round"/>
    <path d="M18 11C18.2761 11 18.5 10.7761 18.5 10.5C18.5 10.2239 18.2761 10 18 10C17.7239 10 17.5 10.2239 17.5 10.5C17.5 10.7761 17.7239 11 18 11Z" fill="#FF720B" stroke="#FF720B" stroke-width="1.6" stroke-linecap="round" stroke-linejoin="round"/>
    <path d="M9 8C9.27614 8 9.5 7.77614 9.5 7.5C9.5 7.22386 9.27614 7 9 7C8.72386 7 8.5 7.22386 8.5 7.5C8.5 7.77614 8.72386 8 9 8Z" fill="#FF720B" stroke="#FF720B" stroke-width="1.6" stroke-linecap="round" stroke-linejoin="round"/>
    <path d="M7 13C7.27614 13 7.5 12.7761 7.5 12.5C7.5 12.2239 7.27614 12 7 12C6.72386 12 6.5 12.2239 6.5 12.5C6.5 12.7761 6.72386 13 7 13Z" fill="#FF720B" stroke="#FF720B" stroke-width="1.6" stroke-linecap="round" stroke-linejoin="round"/>
    <path d="M12.5 2C7 2 2.5 6.5 2.5 12C2.5 17.5 7 22 12.5 22C13.426 22 14.148 21.254 14.148 20.312C14.148 19.875 13.968 19.477 13.711 19.187C13.421 18.898 13.273 18.535 13.273 18.062C13.2692 17.8419 13.3098 17.6233 13.3922 17.4192C13.4747 17.2151 13.5975 17.0298 13.7531 16.8741C13.9088 16.7185 14.0941 16.5957 14.2982 16.5132C14.5023 16.4308 14.7209 16.3902 14.941 16.394H16.937C19.988 16.394 22.492 13.891 22.492 10.84C22.465 6.012 17.961 2 12.5 2Z" stroke="white" stroke-width="1.6" stroke-linecap="round" stroke-linejoin="round"/>
</svg>
