<svg xmlns="http://www.w3.org/2000/svg" width="56" height="56" viewBox="0 0 56 56" fill="none">
    <rect width="56" height="56" fill="#ECECEC"/>
    <path d="M36.6283 21.1374C37.0702 20.9875 37.5161 20.9204 37.954 20.9204V14H10V29.0877L23.975 41.954L37.9067 29.1311L37.9343 29.0877C36.2417 29.0837 34.6595 28.0184 34.0795 26.3258C33.3496 24.1913 34.4898 21.8713 36.6244 21.1414L36.6283 21.1374Z" fill="#FF720B"/>
    <path d="M37.9617 29.0837C38.3957 29.0837 38.8376 29.0166 39.2717 28.8667C41.4062 28.1368 42.5464 25.8168 41.8165 23.6823C41.2365 21.9896 39.6544 20.9244 37.9578 20.9204V29.0837H37.9617Z" fill="#FBFEFF"/>
    <path d="M45.3635 41.9539L37.9617 29.0836C37.9617 29.0836 37.9617 29.0836 37.9578 29.0836V41.9539H45.3675H45.3635Z" fill="#FBFEFF"/>
    <path d="M37.9492 29.064L37.938 29.0828C37.938 29.0828 37.9492 29.0828 37.9568 29.0828V29.0752L37.9492 29.064Z" fill="#FF720B"/>
</svg>
