
<svg xmlns="http://www.w3.org/2000/svg" width="56" height="56" viewBox="0 0 56 56" fill="none">
    <rect width="56" height="56" fill="#ECECEC"/>
    <path d="M27.7799 44.8203C30.7242 44.8203 33.111 42.4334 33.111 39.4891C33.111 36.5448 30.7242 34.158 27.7799 34.158C24.8355 34.158 22.4487 36.5448 22.4487 39.4891C22.4487 42.4334 24.8355 44.8203 27.7799 44.8203Z" fill="#FF720B"/>
    <path d="M27.7799 21.842C30.7242 21.842 33.111 19.4552 33.111 16.5109C33.111 13.5665 30.7242 11.1797 27.7799 11.1797C24.8355 11.1797 22.4487 13.5665 22.4487 16.5109C22.4487 19.4552 24.8355 21.842 27.7799 21.842Z" fill="#FF720B"/>
    <path d="M21.8474 9L9 21.8474H21.8474V9Z" fill="#FF720B"/>
    <path d="M46.9999 21.8474L34.1525 9V21.8474H46.9999Z" fill="#FBFEFF"/>
    <path d="M34.1525 47L46.9999 34.1526H34.1525V47Z" fill="#1D1D1D"/>
    <path d="M8.99997 34.1526L21.8474 47V34.1526H8.99997Z" fill="#FF720B"/>
    <path d="M39.4891 33.3688C42.4334 33.3688 44.8202 30.9819 44.8202 28.0376C44.8202 25.0933 42.4334 22.7064 39.4891 22.7064C36.5447 22.7064 34.1579 25.0933 34.1579 28.0376C34.1579 30.9819 36.5447 33.3688 39.4891 33.3688Z" fill="#FF720B"/>
    <path d="M16.5108 33.3688C19.4552 33.3688 21.842 30.9819 21.842 28.0376C21.842 25.0933 19.4552 22.7064 16.5108 22.7064C13.5665 22.7064 11.1797 25.0933 11.1797 28.0376C11.1797 30.9819 13.5665 33.3688 16.5108 33.3688Z" fill="#1D1D1D"/>
    <path d="M27.7799 33.3688C30.7242 33.3688 33.111 30.9819 33.111 28.0376C33.111 25.0933 30.7242 22.7064 27.7799 22.7064C24.8355 22.7064 22.4487 25.0933 22.4487 28.0376C22.4487 30.9819 24.8355 33.3688 27.7799 33.3688Z" fill="#FBFEFF"/>
</svg>
