<svg width="20" height="20" viewBox="0 0 20 20" fill="none" xmlns="http://www.w3.org/2000/svg">
    <path d="M6.77049 6.24609C3.03665 6.24609 -0.000976562 9.28372 -0.000976562 13.0176C-0.000976562 16.7514 3.03665 19.789 6.77049 19.789C10.5043 19.789 13.5419 16.7514 13.5419 13.0176C13.5419 9.28372 10.5043 6.24609 6.77049 6.24609ZM6.33611 7.795C6.23154 9.02986 5.69479 10.1883 4.8203 11.0664C3.9403 11.9386 2.78234 12.4746 1.54793 12.5812C1.65076 11.3459 2.1883 10.187 3.06501 9.3107C3.94171 8.43437 5.10076 7.89731 6.33611 7.795ZM1.61414 14.089C3.22515 13.9657 4.73922 13.2713 5.88368 12.1307C7.0236 10.9861 7.71732 9.472 7.83988 7.86121C8.84443 8.07155 9.76594 8.57 10.4918 9.29564C11.2176 10.0213 11.7162 10.9427 11.9268 11.9472C10.3158 12.0696 8.8016 12.7638 7.6573 13.9044C6.51737 15.049 5.82366 16.5631 5.7011 18.1739C4.69652 17.964 3.77491 17.4658 3.04904 16.7403C2.32318 16.0148 1.82454 15.0934 1.61414 14.089ZM7.20486 18.2401C7.30937 17.0049 7.84612 15.8462 8.72067 14.9677C9.59914 14.0932 10.7579 13.5564 11.993 13.4519C11.8905 14.6875 11.3531 15.8467 10.4764 16.7234C9.59965 17.6001 8.44046 18.1375 7.20486 18.2401Z" fill="#0A2540"/>
    <path d="M19.7443 4.11883C18.9819 3.38851 17.9225 3.18687 16.9585 3.43265C17.2022 2.79563 17.6386 2.21981 18.3087 2.1526C19.1735 2.03322 19.023 0.724068 18.1542 0.807331C17.6573 0.857507 17.1825 1.03816 16.7779 1.33099C16.4651 1.57649 16.1956 1.87248 15.9804 2.20677C15.547 1.38215 13.9048 -0.428586 13.1424 0.637794C12.715 1.47043 13.8185 1.65402 14.2138 2.14658C14.4545 2.39737 14.6281 2.71036 14.7735 3.04041C14.1235 2.70535 13.4032 2.55186 12.6287 2.74949C11.8874 2.99226 10.6685 3.75568 11.3557 4.56123C11.4213 4.62374 11.4988 4.67243 11.5836 4.70444C11.6684 4.73644 11.7587 4.7511 11.8493 4.74755C11.9399 4.74399 12.0288 4.7223 12.1108 4.68374C12.1928 4.64519 12.2663 4.59057 12.3268 4.52311C12.9297 3.82891 13.6881 4.02754 14.3432 4.47295C14.0676 4.60117 13.8132 4.77065 13.5888 4.97554C12.9859 5.52729 11.9325 7.62093 13.1283 7.94195C13.2193 7.9591 13.3129 7.9575 13.4032 7.93723C13.4936 7.91697 13.5788 7.87846 13.6538 7.82408C13.7287 7.7697 13.7918 7.70059 13.8391 7.62098C13.8864 7.54137 13.9169 7.45294 13.9289 7.3611C14.0091 6.49737 14.619 5.72191 15.4507 5.64366C16.1338 7.04611 18.3629 12.5154 15.1317 18.688C15.0838 18.7757 15.0538 18.8721 15.0436 18.9715C15.0333 19.071 15.043 19.1714 15.072 19.2671C15.101 19.3627 15.1488 19.4516 15.2125 19.5286C15.2763 19.6056 15.3547 19.6691 15.4433 19.7154C15.5319 19.7617 15.6288 19.7899 15.7284 19.7983C15.828 19.8068 15.9283 19.7953 16.0234 19.7646C16.1185 19.7338 16.2065 19.6845 16.2823 19.6193C16.3581 19.5542 16.4202 19.4746 16.4649 19.3852C17.6405 17.1947 18.2875 14.7596 18.354 12.2745C18.4206 9.78935 17.9048 7.3231 16.8481 5.07285C16.9013 5.03172 16.9575 4.9946 17.0176 4.9635C17.6436 4.59132 18.2556 4.67258 18.8745 5.15712C19.5627 5.74197 20.4425 4.69064 19.7443 4.11883Z" fill="#0A2540"/>
</svg>
