<svg xmlns="http://www.w3.org/2000/svg" width="12" height="12" viewBox="0 0 12 12" fill="none">
    <g clip-path="url(#clip0_337_2832)">
        <path d="M7.94642 8.59231L7.04461 4.38386C7.58569 4.07243 7.94642 3.24938 7.94642 2.58023C7.94642 2.10188 7.7564 1.64312 7.41815 1.30488C7.07991 0.966635 6.62115 0.776611 6.1428 0.776611C5.66445 0.776611 5.20569 0.966635 4.86744 1.30488C4.5292 1.64312 4.33917 2.10188 4.33917 2.58023C4.33917 3.24938 4.6999 4.07243 5.24099 4.38386L4.33917 8.59231M7.94642 8.59231H4.33917M7.94642 8.59231L9.33881 9.05644C9.45848 9.0963 9.56258 9.17278 9.63638 9.27506C9.71018 9.37735 9.74995 9.50025 9.75004 9.62638V10.3959C9.75004 10.5554 9.6867 10.7083 9.57395 10.821C9.4612 10.9338 9.30828 10.9971 9.14883 10.9971H3.13676C2.97731 10.9971 2.82439 10.9338 2.71164 10.821C2.59889 10.7083 2.53555 10.5554 2.53555 10.3959V9.62698C2.53552 9.50075 2.57523 9.37771 2.64904 9.27531C2.72284 9.1729 2.82701 9.09633 2.94678 9.05644L4.33917 8.59231M3.73797 4.38386H8.54763" stroke="#AAAAAA" stroke-width="0.901811" stroke-linecap="round" stroke-linejoin="round"/>
    </g>
    <defs>
        <clipPath id="clip0_337_2832">
            <rect width="12" height="12" fill="white"/>
        </clipPath>
    </defs>
</svg>
