<svg xmlns="http://www.w3.org/2000/svg" width="16" height="16" viewBox="0 0 16 16" fill="none">
    <path d="M1.33333 5.99992C1.86377 5.99992 2.37247 6.21063 2.74755 6.5857C3.12262 6.96078 3.33333 7.46949 3.33333 7.99992C3.33333 8.53035 3.12262 9.03906 2.74755 9.41413C2.37247 9.7892 1.86377 9.99992 1.33333 9.99992V11.3333C1.33333 11.6869 1.47381 12.026 1.72386 12.2761C1.97391 12.5261 2.31304 12.6666 2.66667 12.6666H13.3333C13.687 12.6666 14.0261 12.5261 14.2761 12.2761C14.5262 12.026 14.6667 11.6869 14.6667 11.3333V9.99992C14.1362 9.99992 13.6275 9.7892 13.2525 9.41413C12.8774 9.03906 12.6667 8.53035 12.6667 7.99992C12.6667 7.46949 12.8774 6.96078 13.2525 6.5857C13.6275 6.21063 14.1362 5.99992 14.6667 5.99992V4.66659C14.6667 4.31296 14.5262 3.97382 14.2761 3.72378C14.0261 3.47373 13.687 3.33325 13.3333 3.33325H2.66667C2.31304 3.33325 1.97391 3.47373 1.72386 3.72378C1.47381 3.97382 1.33333 4.31296 1.33333 4.66659V5.99992Z" stroke="#FF720B" stroke-width="1.2" stroke-linecap="round" stroke-linejoin="round"/>
    <path d="M6 8.00008L7.33333 9.33341L10 6.66675" stroke="#FF720B" stroke-width="1.2" stroke-linecap="round" stroke-linejoin="round"/>
</svg>
