<svg xmlns="http://www.w3.org/2000/svg" width="40" height="40" viewBox="0 0 40 40" fill="none">
    <path d="M16.1676 19.9999C16.1676 17.8822 17.8834 16.165 20.0005 16.165C22.1176 16.165 23.8343 17.8822 23.8343 19.9999C23.8343 22.1176 22.1176 23.8348 20.0005 23.8348C17.8834 23.8348 16.1676 22.1176 16.1676 19.9999ZM14.0951 19.9999C14.0951 23.2623 16.7389 25.9069 20.0005 25.9069C23.262 25.9069 25.9058 23.2623 25.9058 19.9999C25.9058 16.7374 23.262 14.0928 20.0005 14.0928C16.7389 14.0928 14.0951 16.7374 14.0951 19.9999ZM24.7595 13.8586C24.7594 14.1316 24.8403 14.3986 24.9918 14.6256C25.1434 14.8527 25.3588 15.0297 25.611 15.1343C25.8631 15.2389 26.1406 15.2664 26.4083 15.2132C26.676 15.16 26.922 15.0287 27.115 14.8357C27.3081 14.6427 27.4397 14.3968 27.493 14.129C27.5464 13.8613 27.5192 13.5837 27.4148 13.3314C27.3105 13.0791 27.1337 12.8634 26.9068 12.7117C26.6799 12.5599 26.4131 12.4788 26.1401 12.4787H26.1396C25.7737 12.4789 25.4229 12.6243 25.1641 12.883C24.9054 13.1418 24.7599 13.4926 24.7595 13.8586ZM15.3543 29.3637C14.233 29.3126 13.6236 29.1258 13.2186 28.9679C12.6817 28.7589 12.2986 28.5098 11.8958 28.1075C11.493 27.7051 11.2436 27.3223 11.0355 26.7852C10.8777 26.3802 10.6909 25.7704 10.6399 24.6489C10.5842 23.4363 10.573 23.072 10.573 20C10.573 16.9279 10.5851 16.5647 10.6399 15.3511C10.691 14.2295 10.8791 13.6209 11.0355 13.2148C11.2446 12.6777 11.4935 12.2945 11.8958 11.8916C12.298 11.4886 12.6807 11.2392 13.2186 11.0311C13.6234 10.8731 14.233 10.6863 15.3543 10.6353C16.5665 10.5796 16.9307 10.5684 20.0005 10.5684C23.0703 10.5684 23.4348 10.5805 24.648 10.6353C25.7693 10.6864 26.3777 10.8746 26.7837 11.0311C27.3206 11.2392 27.7037 11.4892 28.1065 11.8916C28.5093 12.2939 28.7577 12.6777 28.9668 13.2148C29.1246 13.6197 29.3114 14.2295 29.3624 15.3511C29.4181 16.5647 29.4293 16.9279 29.4293 20C29.4293 23.072 29.4181 23.4353 29.3624 24.6489C29.3113 25.7704 29.1236 26.3801 28.9668 26.7852C28.7577 27.3223 28.5088 27.7055 28.1065 28.1075C27.7043 28.5095 27.3206 28.7589 26.7837 28.9679C26.3789 29.1259 25.7693 29.3127 24.648 29.3637C23.4358 29.4194 23.0716 29.4306 20.0005 29.4306C16.9293 29.4306 16.5661 29.4194 15.3543 29.3637ZM15.2591 8.56576C14.0348 8.62153 13.1982 8.81571 12.4676 9.10009C11.7109 9.39376 11.0704 9.78774 10.4303 10.427C9.79026 11.0662 9.3974 11.7079 9.10382 12.4648C8.81953 13.1961 8.6254 14.0324 8.56965 15.2571C8.51297 16.4837 8.5 16.8758 8.5 19.9999C8.5 23.1239 8.51297 23.5161 8.56965 24.7427C8.6254 25.9674 8.81953 26.8037 9.10382 27.5349C9.3974 28.2913 9.79035 28.9338 10.4303 29.5728C11.0703 30.2117 11.7109 30.6052 12.4676 30.8997C13.1995 31.184 14.0348 31.3782 15.2591 31.434C16.4859 31.4898 16.8773 31.5037 20.0005 31.5037C23.1236 31.5037 23.5156 31.4907 24.7419 31.434C25.9663 31.3782 26.8023 31.184 27.5334 30.8997C28.2895 30.6052 28.9305 30.212 29.5706 29.5728C30.2107 28.9335 30.6027 28.2913 30.8971 27.5349C31.1814 26.8037 31.3764 25.9673 31.4313 24.7427C31.487 23.5152 31.5 23.1239 31.5 19.9999C31.5 16.8758 31.487 16.4837 31.4313 15.2571C31.3755 14.0324 31.1814 13.1956 30.8971 12.4648C30.6027 11.7084 30.2096 11.0672 29.5706 10.427C28.9315 9.78673 28.2895 9.39376 27.5343 9.10009C26.8023 8.81571 25.9662 8.62061 24.7428 8.56576C23.5166 8.50999 23.1245 8.49609 20.0014 8.49609C16.8782 8.49609 16.4859 8.50907 15.2591 8.56576Z" fill="white"/>
</svg>
