<svg xmlns="http://www.w3.org/2000/svg" width="40" height="40" viewBox="0 0 40 40" fill="none">
    <path d="M13.9906 30.5297V16.3204H9.27179V30.5297H13.9911H13.9906ZM11.6322 14.3807C13.2773 14.3807 14.3016 13.2896 14.3016 11.926C14.2708 10.5314 13.2773 9.4707 11.6634 9.4707C10.0484 9.4707 8.99365 10.5314 8.99365 11.9259C8.99365 13.2895 10.0175 14.3806 11.6012 14.3806H11.6318L11.6322 14.3807ZM16.6025 30.5297H21.3209V22.5955C21.3209 22.1713 21.3517 21.7461 21.4763 21.4432C21.8173 20.5943 22.5937 19.7157 23.8975 19.7157C25.6046 19.7157 26.2878 21.0186 26.2878 22.929V30.5297H31.0061V22.3825C31.0061 18.0182 28.6785 15.9873 25.574 15.9873C23.0287 15.9873 21.9109 17.4111 21.2898 18.3809H21.3212V16.3209H16.6027C16.6643 17.6539 16.6023 30.5302 16.6023 30.5302L16.6025 30.5297Z" fill="white"/>
</svg>
