<svg xmlns="http://www.w3.org/2000/svg" width="12" height="12" viewBox="0 0 12 12" fill="none">
    <g clip-path="url(#clip0_337_2984)">
        <path d="M1.76068 10.2448C2.5996 11.0829 3.66817 11.6535 4.83132 11.8844C5.99447 12.1154 7.19998 11.9963 8.29545 11.5422C9.39093 11.0882 10.3272 10.3195 10.9859 9.33344C11.6446 8.34736 11.9962 7.18813 11.9962 6.00228C11.9962 4.81642 11.6446 3.65719 10.9859 2.67111C10.3272 1.68503 9.39093 0.91638 8.29545 0.462317C7.19998 0.008255 5.99447 -0.110832 4.83132 0.120109C3.66817 0.351049 2.5996 0.921651 1.76068 1.75978C0.637142 2.88583 0.00615501 4.41158 0.00615501 6.00228C0.00615501 7.59298 0.637142 9.11872 1.76068 10.2448ZM1.03618 6.53628C1.63577 6.46354 2.24404 6.52815 2.81497 6.72522C3.3859 6.92229 3.90451 7.24665 4.33157 7.67375C4.75862 8.10086 5.08293 8.61951 5.27993 9.19046C5.47693 9.76141 5.54148 10.3697 5.46868 10.9693C4.33381 10.85 3.27434 10.3446 2.4675 9.53762C1.66065 8.73068 1.15537 7.67115 1.03618 6.53628ZM10.9702 5.46828C10.3706 5.54101 9.7623 5.4764 9.19138 5.27933C8.62045 5.08226 8.10183 4.7579 7.67478 4.3308C7.24773 3.9037 6.92342 3.38504 6.72642 2.81409C6.52941 2.24314 6.46487 1.63486 6.53767 1.03529C7.67253 1.1546 8.73201 1.66 9.53885 2.46694C10.3457 3.27387 10.851 4.3334 10.9702 5.46828ZM2.46768 2.46828C3.28913 1.64503 4.37312 1.13568 5.53118 1.02879C5.45942 1.76215 5.55113 2.50229 5.79969 3.19597C6.04825 3.88964 6.44749 4.51959 6.96867 5.04049C7.48985 5.56139 8.12002 5.96028 8.81384 6.20846C9.50765 6.45663 10.2478 6.54793 10.9812 6.47578C10.8724 7.63363 10.3626 8.71712 9.53988 9.53904C8.71714 10.361 7.63314 10.8697 6.47517 10.9773C6.54241 10.284 6.46386 9.58432 6.24455 8.92321C6.02525 8.26211 5.67005 7.6542 5.20179 7.13857C4.73352 6.62293 4.16255 6.21097 3.52558 5.92917C2.8886 5.64737 2.19971 5.50195 1.50318 5.50228C1.34468 5.50228 1.18568 5.51028 1.02668 5.52528C1.13529 4.36883 1.64507 3.28683 2.46768 2.46678V2.46828Z" fill="#FF720B"/>
    </g>
    <defs>
        <clipPath id="clip0_337_2984">
            <rect width="12" height="12" fill="white" transform="matrix(-1 0 0 -1 12 12)"/>
        </clipPath>
    </defs>
</svg>
