<svg width="148" height="24" viewBox="0 0 148 24" fill="none" xmlns="http://www.w3.org/2000/svg">
    <path d="M41.7162 4.65128L38.9249 3.56689V7.94821H36.2991V10.4282H38.9249V16.9297C38.852 20.4065 40.7193 20.5475 44.5511 20.2169V17.7806C41.8085 17.9946 41.7162 17.7563 41.7162 15.7237V10.4282H45.1201V7.94821H41.7162V4.65128Z" fill="#FBFEFF"/>
    <path d="M52.8034 7.56885C49.0932 7.56885 46.443 10.2628 46.443 14.0703C46.443 17.8778 49.0883 20.6204 52.8034 20.6204C56.5186 20.6204 59.1639 17.9021 59.1639 14.0703C59.1639 10.2385 56.5186 7.56885 52.8034 7.56885ZM52.8034 18.2279C50.7222 18.2279 49.2585 16.5017 49.2585 14.0655C49.2585 11.6292 50.7222 9.95158 52.8034 9.95158C54.8847 9.95158 56.3727 11.6535 56.3727 14.0655C56.3727 16.4774 54.8847 18.2279 52.8034 18.2279Z" fill="#FBFEFF"/>
    <path d="M70.0799 14.0899C70.0799 16.5261 68.7572 18.228 66.7489 18.228C65.047 18.228 64.0793 16.9978 64.0793 15.0381V7.94824H61.2881V15.1597C61.2881 18.7532 62.8004 20.6205 65.8007 20.6205C67.809 20.6205 69.2289 19.6723 70.0799 18.2572V20.2412H72.8468V7.94824H70.0799V14.0947V14.0899Z" fill="#FBFEFF"/>
    <path d="M78.3276 10.2876V7.94864H75.6337V20.2416H78.3276V13.4095C78.3276 11.1872 80.4332 10.4335 83.1952 10.4335V7.80762C80.7833 7.80762 79.13 8.63428 78.3276 10.2876Z" fill="#FBFEFF"/>
    <path d="M91.7531 7.56834C89.7448 7.56834 88.3492 8.51658 87.4982 9.93163V7.94764H84.707V20.2406H87.4982V14.0941C87.4982 11.6579 88.7966 9.95594 90.8292 9.95594C92.5312 9.95594 93.4745 11.1862 93.4745 13.1459V20.2357H96.29V13.0243C96.29 9.43076 94.7777 7.56348 91.7531 7.56348V7.56834Z" fill="#FBFEFF"/>
    <path d="M109.814 16.9048V12.081C109.814 9.24598 107.947 7.56348 104.494 7.56348C101.042 7.56348 99.1257 9.26544 99.1257 12.149H101.771C101.771 10.7777 102.739 9.95108 104.441 9.95108C106.235 9.95108 107.067 10.7291 107.042 12.081V12.6937L104.134 13.0243C100.565 13.4279 98.6735 14.7749 98.6735 16.9729C98.6735 18.8401 99.9961 20.615 102.928 20.615C105.126 20.615 106.571 19.6474 107.232 17.9892C107.422 19.8321 108.53 20.7804 110.942 20.1385L110.966 18.174C109.999 18.2663 109.809 17.9114 109.809 16.8999L109.814 16.9048ZM103.522 18.49C102.034 18.49 101.44 17.6877 101.44 16.8805C101.44 15.7912 102.671 15.2709 105.083 14.9889L106.974 14.7992C106.857 16.8805 105.462 18.4852 103.522 18.4852V18.49Z" fill="#FBFEFF"/>
    <path d="M113.83 7.94322H111.205V10.4232H113.83V16.9247C113.758 20.4015 115.625 20.5425 119.457 20.2119V17.7757C116.714 17.9896 116.622 17.7513 116.622 15.7187V10.4232H120.026V7.94322H116.622V4.38371L113.83 3.29932V7.94322Z" fill="#FBFEFF"/>
    <path d="M127.656 7.56885C123.97 7.56885 121.344 10.2628 121.344 14.0703C121.344 17.8778 123.97 20.6204 127.656 20.6204C130.588 20.6204 132.786 18.8698 133.165 16.5309H130.398C130.184 17.4791 129.168 18.3495 127.656 18.3495C125.55 18.3495 124.368 16.9782 124.203 14.9456H133.257V13.9293C133.257 9.91268 130.753 7.56885 127.656 7.56885ZM124.208 13.0297C124.49 11.1867 125.603 9.95644 127.563 9.95644C129.265 9.95644 130.398 11.2305 130.495 13.0297H124.208Z" fill="#FBFEFF"/>
    <path d="M144.626 9.76744C143.775 8.39615 142.379 7.56949 140.536 7.56949C137.371 7.56949 135.124 10.2634 135.124 14.0466C135.124 17.8298 137.371 20.621 140.536 20.621C142.379 20.6454 143.775 19.8187 144.626 18.4231V20.2418H147.417V3.58691H144.626V9.76744ZM141.295 18.2286C139.287 18.2286 137.891 16.5023 137.891 14.0661C137.891 11.6299 139.287 9.95223 141.295 9.95223C143.303 9.95223 144.699 11.6542 144.699 14.0661C144.699 16.478 143.279 18.2286 141.295 18.2286Z" fill="#FBFEFF"/>
    <path d="M26.8715 10.5V0H0L26.8715 10.5Z" fill="#FF720B"/>
    <path d="M8.09979 7.07178V14.4004H26.8713L8.09979 7.07178Z" fill="#FF720B"/>
    <path d="M26.8712 24.0001V17.8286H16.7141L26.8712 24.0001Z" fill="#FF720B"/>
</svg>
