<svg xmlns="http://www.w3.org/2000/svg" width="40" height="40" viewBox="0 0 40 40" fill="none">
    <path d="M19.5009 8.62402C19.5009 8.62402 19.3124 13.4323 24.3092 13.4323" stroke="#FBFEFF" stroke-width="0.4"/>
    <path d="M20.5591 17.1826C20.5591 17.1826 20.7477 12.3743 15.7508 12.3743" stroke="#FBFEFF" stroke-width="0.4"/>
    <rect x="13.3333" y="20" width="6.66667" height="6.66667" fill="#FBFEFF"/>
    <rect x="26.6669" y="20" width="6.66667" height="6.66667" fill="#FBFEFF"/>
    <rect x="26.6669" y="33.3335" width="6.66667" height="6.66667" transform="rotate(-180 26.6669 33.3335)" fill="#FBFEFF"/>
    <rect x="13.3333" y="33.3335" width="6.66667" height="6.66667" transform="rotate(-180 13.3333 33.3335)" fill="#FBFEFF"/>
    <path d="M20.0002 19.9998L26.6669 26.6665L26.6669 19.9998L20.0002 19.9998Z" fill="#FF720B"/>
    <path d="M20.0002 19.9998L26.6669 26.6665L26.6669 19.9998L20.0002 19.9998Z" fill="#FF720B"/>
    <path d="M20 33.3332L13.3333 26.6665L13.3333 33.3332H20Z" fill="#FF720B"/>
    <path d="M33.3336 26.6668L26.6669 33.3335L33.3336 33.3335L33.3336 26.6668Z" fill="#FF720B"/>
    <path d="M6.66668 19.9998L13.3333 26.6665L13.3333 19.9998L6.66668 19.9998Z" fill="#FF720B"/>
    <path d="M23.0836 15.8836C21.4174 17.5499 18.7159 17.5499 17.0496 15.8836C15.3834 14.2174 15.3834 11.5159 17.0496 9.84964C18.7159 8.1834 21.4174 8.1834 23.0836 9.84964C24.7498 11.5159 24.7498 14.2174 23.0836 15.8836Z" stroke="#FF720B" stroke-width="0.4"/>
</svg>
