<svg xmlns="http://www.w3.org/2000/svg" width="40" height="40" viewBox="0 0 40 40" fill="none">
    <path d="M15.4946 15.5222L6.66666 6.69434V15.5222H15.4946Z" fill="#FF720B"/>
    <path d="M32.7777 6.69434L23.9498 15.5222H32.7777V6.69434Z" fill="#FBFEFF"/>
    <path d="M6.66666 33.4588L15.4946 24.6309H6.66666V33.4588Z" fill="#FBFEFF"/>
    <path d="M23.9498 24.6309L32.7777 33.4588V24.6309H23.9498Z" fill="#FF720B"/>
    <path d="M28.934 23.7381C30.9572 23.7381 32.5972 22.098 32.5972 20.0749C32.5972 18.0517 30.9572 16.4116 28.934 16.4116C26.9109 16.4116 25.2708 18.0517 25.2708 20.0749C25.2708 22.098 26.9109 23.7381 28.934 23.7381Z" fill="#FF720B"/>
    <path d="M10.3299 23.7381C12.353 23.7381 13.9931 22.098 13.9931 20.0749C13.9931 18.0517 12.353 16.4116 10.3299 16.4116C8.30674 16.4116 6.66666 18.0517 6.66666 20.0749C6.66666 22.098 8.30674 23.7381 10.3299 23.7381Z" fill="#FF720B"/>
    <path d="M19.7221 23.7381C21.7452 23.7381 23.3853 22.098 23.3853 20.0749C23.3853 18.0517 21.7452 16.4116 19.7221 16.4116C17.6989 16.4116 16.0588 18.0517 16.0588 20.0749C16.0588 22.098 17.6989 23.7381 19.7221 23.7381Z" fill="#FBFEFF"/>
</svg>
